<svg xmlns="http://www.w3.org/2000/svg" width="1024" height="1756" viewBox="0 0 1024 1756">
  <rect width="1024" height="1756" fill="#ffffff"/>
  <style>
    .header { font: 700 20px Arial, Helvetica, sans-serif; fill: #0f0f0f; }
    .title { font: 700 12px Arial, Helvetica, sans-serif; fill: #0f0f0f; }
    .body { font: 11.5px Arial, Helvetica, sans-serif; fill: #0f0f0f; }
    .small { font: 10.5px Arial, Helvetica, sans-serif; fill: #0f0f0f; }
  </style>
  <rect x="8" y="8" width="309" height="50" fill="#ffffff" stroke="#0f0f0f" stroke-width="1.4"/>
  <text x="162.5" y="40" text-anchor="middle" class="header">
    <tspan x="162.5" dy="0">INPUT</tspan>
  </text>
  <rect x="357" y="8" width="309" height="50" fill="#ffffff" stroke="#0f0f0f" stroke-width="1.4"/>
  <text x="511.5" y="40" text-anchor="middle" class="header">
    <tspan x="511.5" dy="0">PROCESS</tspan>
  </text>
  <rect x="706" y="8" width="309" height="50" fill="#ffffff" stroke="#0f0f0f" stroke-width="1.4"/>
  <text x="860.5" y="40" text-anchor="middle" class="header">
    <tspan x="860.5" dy="0">OUTPUT</tspan>
  </text>
  <rect x="8" y="76" width="309" height="132" fill="#ffffff" stroke="#0f0f0f" stroke-width="1.4"/>
  <rect x="357" y="76" width="309" height="132" fill="#ffffff" stroke="#0f0f0f" stroke-width="1.4"/>
  <rect x="706" y="76" width="309" height="132" fill="#ffffff" stroke="#0f0f0f" stroke-width="1.4"/>
  <text x="162.5" y="98" text-anchor="middle" class="title">
    <tspan x="162.5" dy="0">User Account Details</tspan>
  </text>
  <text x="42" y="128" text-anchor="start" class="body">
    <tspan x="42" dy="0">•  Email Address</tspan>
    <tspan x="42" dy="18">•  Password</tspan>
    <tspan x="42" dy="18">•  Assign Role Access</tspan>
    <tspan x="42" dy="18">•  Update Status</tspan>
  </text>
  <text x="511.5" y="142" text-anchor="middle" class="body">
    <tspan x="511.5" dy="0">M</tspan>
  </text>
  <text x="860.5" y="130" text-anchor="middle" class="body">
    <tspan x="860.5" dy="0">User Account, Login Access,</tspan>
    <tspan x="860.5" dy="18">Active/Inactive User List</tspan>
  </text>
  <rect x="8" y="226" width="309" height="132" fill="#ffffff" stroke="#0f0f0f" stroke-width="1.4"/>
  <rect x="357" y="226" width="309" height="132" fill="#ffffff" stroke="#0f0f0f" stroke-width="1.4"/>
  <rect x="706" y="226" width="309" height="132" fill="#ffffff" stroke="#0f0f0f" stroke-width="1.4"/>
  <text x="162.5" y="248" text-anchor="middle" class="title">
    <tspan x="162.5" dy="0">Secretary Details</tspan>
  </text>
  <text x="162.5" y="284" text-anchor="middle" class="body">
    <tspan x="162.5" dy="0">Vehicle Updates</tspan>
    <tspan x="162.5" dy="16">Register Customer like Email,</tspan>
    <tspan x="162.5" dy="16">Customer Name, Contact, Status</tspan>
  </text>
  <text x="511.5" y="248" text-anchor="middle" class="title">
    <tspan x="511.5" dy="0">Manage Secretary</tspan>
  </text>
  <text x="427" y="284" text-anchor="start" class="body">
    <tspan x="427" dy="0">•  Add Customer</tspan>
    <tspan x="427" dy="18">•  Process Reservation</tspan>
    <tspan x="427" dy="18">•  Create Job Order</tspan>
  </text>
  <text x="860.5" y="280" text-anchor="middle" class="body">
    <tspan x="860.5" dy="0">Secretary records, update</tspan>
    <tspan x="860.5" dy="18">customer/vehicle records, reservation,</tspan>
    <tspan x="860.5" dy="18">payments, documents and release</tspan>
  </text>
  <rect x="8" y="376" width="309" height="132" fill="#ffffff" stroke="#0f0f0f" stroke-width="1.4"/>
  <rect x="357" y="376" width="309" height="132" fill="#ffffff" stroke="#0f0f0f" stroke-width="1.4"/>
  <rect x="706" y="376" width="309" height="132" fill="#ffffff" stroke="#0f0f0f" stroke-width="1.4"/>
  <text x="162.5" y="398" text-anchor="middle" class="title">
    <tspan x="162.5" dy="0">Mechanic/Car-Washer</tspan>
  </text>
  <text x="162.5" y="434" text-anchor="middle" class="body">
    <tspan x="162.5" dy="0">Job Order, Request, Vehicle, assigned,</tspan>
    <tspan x="162.5" dy="16">Repair/Washing Status, Status</tspan>
    <tspan x="162.5" dy="16">Active/Inactive</tspan>
  </text>
  <text x="511.5" y="398" text-anchor="middle" class="title">
    <tspan x="511.5" dy="0">Manage Mechanic/Car-
Washer</tspan>
  </text>
  <text x="427" y="434" text-anchor="start" class="body">
    <tspan x="427" dy="0">•  Update Job Order</tspan>
    <tspan x="427" dy="18">•  Update Vehicle Status</tspan>
  </text>
  <text x="860.5" y="430" text-anchor="middle" class="body">
    <tspan x="860.5" dy="0">Washing/Repair Status, Order Updates</tspan>
    <tspan x="860.5" dy="18">completed cleaning records and</tspan>
    <tspan x="860.5" dy="18">inspection findings, vehicle condition</tspan>
    <tspan x="860.5" dy="18">updates</tspan>
  </text>
  <rect x="8" y="526" width="309" height="132" fill="#ffffff" stroke="#0f0f0f" stroke-width="1.4"/>
  <rect x="357" y="526" width="309" height="132" fill="#ffffff" stroke="#0f0f0f" stroke-width="1.4"/>
  <rect x="706" y="526" width="309" height="132" fill="#ffffff" stroke="#0f0f0f" stroke-width="1.4"/>
  <text x="162.5" y="548" text-anchor="middle" class="title">
    <tspan x="162.5" dy="0">Customer Details</tspan>
  </text>
  <text x="162.5" y="584" text-anchor="middle" class="body">
    <tspan x="162.5" dy="0">Register Customer</tspan>
    <tspan x="162.5" dy="16">Update Customer</tspan>
  </text>
  <text x="511.5" y="548" text-anchor="middle" class="title">
    <tspan x="511.5" dy="0">Customer</tspan>
  </text>
  <text x="427" y="584" text-anchor="start" class="body">
    <tspan x="427" dy="0">•  Browse Vehicle</tspan>
    <tspan x="427" dy="18">•  View History</tspan>
    <tspan x="427" dy="18">•  Reserve Vehicle</tspan>
  </text>
  <text x="860.5" y="580" text-anchor="middle" class="body">
    <tspan x="860.5" dy="0">Customer Records , Customer Profile,</tspan>
    <tspan x="860.5" dy="18">Active Customer List</tspan>
  </text>
  <rect x="8" y="676" width="309" height="132" fill="#ffffff" stroke="#0f0f0f" stroke-width="1.4"/>
  <rect x="357" y="676" width="309" height="132" fill="#ffffff" stroke="#0f0f0f" stroke-width="1.4"/>
  <rect x="706" y="676" width="309" height="132" fill="#ffffff" stroke="#0f0f0f" stroke-width="1.4"/>
  <text x="162.5" y="698" text-anchor="middle" class="title">
    <tspan x="162.5" dy="0">Vehicle Details</tspan>
  </text>
  <text x="162.5" y="734" text-anchor="middle" class="body">
    <tspan x="162.5" dy="0">Add and Update Inventory, brand,</tspan>
    <tspan x="162.5" dy="16">model, year, color,</tspan>
    <tspan x="162.5" dy="16">engine/chassis/plate number, mileage,</tspan>
    <tspan x="162.5" dy="16">pricing, photos, location, and status</tspan>
  </text>
  <text x="511.5" y="698" text-anchor="middle" class="title">
    <tspan x="511.5" dy="0">Manage Vehicle</tspan>
  </text>
  <text x="427" y="734" text-anchor="start" class="body">
    <tspan x="427" dy="0">•  Add Vehicle</tspan>
    <tspan x="427" dy="18">•  Update Vehicle</tspan>
  </text>
  <text x="860.5" y="730" text-anchor="middle" class="body">
    <tspan x="860.5" dy="0">Inventory Records, Vehicle List,</tspan>
    <tspan x="860.5" dy="18">available/reserved/sold/sold for repair</tspan>
    <tspan x="860.5" dy="18">status</tspan>
  </text>
  <rect x="8" y="826" width="309" height="132" fill="#ffffff" stroke="#0f0f0f" stroke-width="1.4"/>
  <rect x="357" y="826" width="309" height="132" fill="#ffffff" stroke="#0f0f0f" stroke-width="1.4"/>
  <rect x="706" y="826" width="309" height="132" fill="#ffffff" stroke="#0f0f0f" stroke-width="1.4"/>
  <text x="162.5" y="848" text-anchor="middle" class="title">
    <tspan x="162.5" dy="0">Reservation Details</tspan>
  </text>
  <text x="162.5" y="884" text-anchor="middle" class="body">
    <tspan x="162.5" dy="0">Create, View, Approve, Update,</tspan>
    <tspan x="162.5" dy="16">monitor or cancel vehicle reservation</tspan>
  </text>
  <text x="511.5" y="892" text-anchor="middle" class="body">
    <tspan x="511.5" dy="0">M</tspan>
  </text>
  <text x="860.5" y="880" text-anchor="middle" class="body">
    <tspan x="860.5" dy="0">Reservation history, approval status,</tspan>
    <tspan x="860.5" dy="18">expiring reservation records</tspan>
  </text>
  <rect x="8" y="976" width="309" height="146" fill="#ffffff" stroke="#3d7aa9" stroke-width="1.4"/>
  <rect x="357" y="976" width="309" height="146" fill="#ffffff" stroke="#3d7aa9" stroke-width="1.4"/>
  <rect x="706" y="976" width="309" height="146" fill="#ffffff" stroke="#3d7aa9" stroke-width="1.4"/>
  <text x="162.5" y="998" text-anchor="middle" class="title">
    <tspan x="162.5" dy="0">Job Order Details</tspan>
  </text>
  <text x="26" y="1024" text-anchor="start" class="small">
    <tspan x="26" dy="0">•  Job Order No.</tspan>
    <tspan x="26" dy="16">•  Customer/Vehicle</tspan>
    <tspan x="26" dy="16">•  Service Type</tspan>
    <tspan x="26" dy="16">•  Issue</tspan>
    <tspan x="26" dy="16">•  Priority</tspan>
  </text>
  <text x="168.5" y="1024" text-anchor="start" class="small">
    <tspan x="168.5" dy="0">•  Schedule</tspan>
    <tspan x="168.5" dy="16">•  Assigned Staff</tspan>
    <tspan x="168.5" dy="16">•  Labor/Cost</tspan>
    <tspan x="168.5" dy="16">•  Progress/Status</tspan>
  </text>
  <text x="511.5" y="1018" text-anchor="middle" class="body">
    <tspan x="511.5" dy="0">Create / Review / Assign</tspan>
    <tspan x="511.5" dy="18">Update Progress</tspan>
    <tspan x="511.5" dy="18">Record Findings and Cost</tspan>
    <tspan x="511.5" dy="18">Complete or Cancel</tspan>
  </text>
  <text x="860.5" y="1030" text-anchor="middle" class="body">
    <tspan x="860.5" dy="0">Job Order Information</tspan>
    <tspan x="860.5" dy="18">Status Report</tspan>
  </text>
  <rect x="8" y="1140" width="309" height="132" fill="#ffffff" stroke="#0f0f0f" stroke-width="1.4"/>
  <rect x="357" y="1140" width="309" height="132" fill="#ffffff" stroke="#0f0f0f" stroke-width="1.4"/>
  <rect x="706" y="1140" width="309" height="132" fill="#ffffff" stroke="#0f0f0f" stroke-width="1.4"/>
  <text x="162.5" y="1162" text-anchor="middle" class="title">
    <tspan x="162.5" dy="0">Job Order Details</tspan>
  </text>
  <text x="162.5" y="1198" text-anchor="middle" class="body">
    <tspan x="162.5" dy="0">Create, View, Approve, Update,</tspan>
    <tspan x="162.5" dy="16">monitor or cancel vehicle reservation</tspan>
  </text>
  <text x="511.5" y="1206" text-anchor="middle" class="body">
    <tspan x="511.5" dy="0">C</tspan>
  </text>
  <text x="860.5" y="1194" text-anchor="middle" class="body">
    <tspan x="860.5" dy="0">Job Order Information</tspan>
    <tspan x="860.5" dy="18">Status Report</tspan>
  </text>
  <rect x="8" y="1290" width="309" height="146" fill="#ffffff" stroke="#3d7aa9" stroke-width="1.4"/>
  <rect x="357" y="1290" width="309" height="146" fill="#ffffff" stroke="#3d7aa9" stroke-width="1.4"/>
  <rect x="706" y="1290" width="309" height="146" fill="#ffffff" stroke="#3d7aa9" stroke-width="1.4"/>
  <text x="162.5" y="1312" text-anchor="middle" class="title">
    <tspan x="162.5" dy="0">Vehicle Parts / Pre-Sale Repair Details</tspan>
  </text>
  <text x="26" y="1338" text-anchor="start" class="small">
    <tspan x="26" dy="0">•  Affected Part</tspan>
    <tspan x="26" dy="16">•  Issue</tspan>
    <tspan x="26" dy="16">•  Repair Action</tspan>
    <tspan x="26" dy="16">•  Cost</tspan>
  </text>
  <text x="168.5" y="1338" text-anchor="start" class="small">
    <tspan x="168.5" dy="0">•  Photos</tspan>
    <tspan x="168.5" dy="16">•  Assigned Staff</tspan>
    <tspan x="168.5" dy="16">•  Readiness Status</tspan>
  </text>
  <text x="511.5" y="1332" text-anchor="middle" class="body">
    <tspan x="511.5" dy="0">Manage Parts During</tspan>
    <tspan x="511.5" dy="18">Inspection / Pre-Sale Repair</tspan>
    <tspan x="511.5" dy="18">Update Affected Parts</tspan>
    <tspan x="511.5" dy="18">Record Repair Actions / Costs</tspan>
    <tspan x="511.5" dy="18">Verify Condition</tspan>
    <tspan x="511.5" dy="18">Mark Ready for Sale</tspan>
  </text>
  <text x="860.5" y="1344" text-anchor="middle" class="body">
    <tspan x="860.5" dy="0">Affected-Parts record, presale</tspan>
    <tspan x="860.5" dy="18">inspections record, repair, ready tosale status</tspan>
  </text>
  <rect x="8" y="1454" width="309" height="132" fill="#ffffff" stroke="#0f0f0f" stroke-width="1.4"/>
  <rect x="357" y="1454" width="309" height="132" fill="#ffffff" stroke="#0f0f0f" stroke-width="1.4"/>
  <rect x="706" y="1454" width="309" height="132" fill="#ffffff" stroke="#0f0f0f" stroke-width="1.4"/>
  <text x="162.5" y="1476" text-anchor="middle" class="title">
    <tspan x="162.5" dy="0">Payments Details</tspan>
  </text>
  <text x="162.5" y="1512" text-anchor="middle" class="body">
    <tspan x="162.5" dy="0">receipt of payment</tspan>
    <tspan x="162.5" dy="16">receipt number, paid date, status,</tspan>
    <tspan x="162.5" dy="16">update sales totals</tspan>
  </text>
  <text x="511.5" y="1520" text-anchor="middle" class="body">
    <tspan x="511.5" dy="0">M</tspan>
  </text>
  <text x="860.5" y="1508" text-anchor="middle" class="body">
    <tspan x="860.5" dy="0">Payments records, receipt, proof</tspan>
    <tspan x="860.5" dy="18">history, outstanding balance report</tspan>
  </text>
  <rect x="8" y="1604" width="309" height="132" fill="#ffffff" stroke="#0f0f0f" stroke-width="1.4"/>
  <rect x="357" y="1604" width="309" height="132" fill="#ffffff" stroke="#0f0f0f" stroke-width="1.4"/>
  <rect x="706" y="1604" width="309" height="132" fill="#ffffff" stroke="#0f0f0f" stroke-width="1.4"/>
  <text x="162.5" y="1626" text-anchor="middle" class="title">
    <tspan x="162.5" dy="0">Financing</tspan>
  </text>
  <text x="162.5" y="1662" text-anchor="middle" class="body">
    <tspan x="162.5" dy="0">Application Number, approved amount,</tspan>
    <tspan x="162.5" dy="16">down payment, approval date,</tspan>
    <tspan x="162.5" dy="16">remarks and status</tspan>
  </text>
  <text x="511.5" y="1670" text-anchor="middle" class="body">
    <tspan x="511.5" dy="0">M</tspan>
  </text>
  <text x="860.5" y="1658" text-anchor="middle" class="body">
    <tspan x="860.5" dy="0">Financing records, financial basis</tspan>
    <tspan x="860.5" dy="18">tracking, financing approval/status</tspan>
    <tspan x="860.5" dy="18">report.</tspan>
  </text>
</svg>
