<svg xmlns="http://www.w3.org/2000/svg" width="1320" height="822" viewBox="0 0 1320 822">
  <rect width="1320" height="822" fill="#ffffff"/>
  <defs><marker id="arrow" viewBox="0 0 10 10" refX="5" refY="5" markerWidth="7" markerHeight="7" orient="auto"><path d="M 0 0 L 10 5 L 0 10 z" fill="#373737"/></marker></defs>
  <style>.entity{font:700 10px Arial,sans-serif;fill:#202020}.process{font:700 8.3px Arial,sans-serif;fill:#202020}.store{font:700 8.5px Arial,sans-serif;fill:#202020}.label{font:400 7.8px Arial,sans-serif;fill:#202020}.caption{font:700 18px 'Times New Roman',serif;fill:#000}</style>
  <rect x="42" y="44" width="164" height="272" fill="#ffffff" stroke="#2d2d2d" stroke-width="1.5"/>
  <text x="124" y="180" text-anchor="middle" dominant-baseline="middle" class="entity">
    <tspan x="124" dy="0">CUSTOMER</tspan>
  </text>
  <rect x="500" y="68" width="188" height="58" fill="#fafafa" stroke="#2d2d2d" stroke-width="1.5"/>
  <line x1="500" y1="86" x2="688" y2="86" stroke="#2d2d2d" stroke-width="1.5"/>
  <text x="594" y="77" text-anchor="middle" dominant-baseline="middle" class="process">
    <tspan x="594" dy="0">1</tspan>
  </text>
  <text x="594" y="100" text-anchor="middle" dominant-baseline="middle" class="process">
    <tspan x="594" dy="0">LOGIN / REGISTER</tspan>
    <tspan x="594" dy="12">ACCOUNT</tspan>
  </text>
  <rect x="980" y="68" width="214" height="58" fill="#ffffff" stroke="#2d2d2d" stroke-width="1.5"/>
  <line x1="1025" y1="68" x2="1025" y2="126" stroke="#2d2d2d" stroke-width="1.5"/>
  <text x="1002.5" y="97" text-anchor="middle" dominant-baseline="middle" class="store">
    <tspan x="1002.5" dy="0">D1</tspan>
  </text>
  <text x="1110" y="97" text-anchor="middle" dominant-baseline="middle" class="store">
    <tspan x="1110" dy="0">USER</tspan>
  </text>
  <rect x="500" y="154" width="188" height="58" fill="#fafafa" stroke="#2d2d2d" stroke-width="1.5"/>
  <line x1="500" y1="172" x2="688" y2="172" stroke="#2d2d2d" stroke-width="1.5"/>
  <text x="594" y="163" text-anchor="middle" dominant-baseline="middle" class="process">
    <tspan x="594" dy="0">2</tspan>
  </text>
  <text x="594" y="186" text-anchor="middle" dominant-baseline="middle" class="process">
    <tspan x="594" dy="0">VIEW</tspan>
    <tspan x="594" dy="12">VEHICLES</tspan>
  </text>
  <rect x="980" y="154" width="214" height="58" fill="#ffffff" stroke="#2d2d2d" stroke-width="1.5"/>
  <line x1="1025" y1="154" x2="1025" y2="212" stroke="#2d2d2d" stroke-width="1.5"/>
  <text x="1002.5" y="183" text-anchor="middle" dominant-baseline="middle" class="store">
    <tspan x="1002.5" dy="0">D2</tspan>
  </text>
  <text x="1110" y="183" text-anchor="middle" dominant-baseline="middle" class="store">
    <tspan x="1110" dy="0">VEHICLES</tspan>
  </text>
  <rect x="500" y="240" width="188" height="58" fill="#fafafa" stroke="#2d2d2d" stroke-width="1.5"/>
  <line x1="500" y1="258" x2="688" y2="258" stroke="#2d2d2d" stroke-width="1.5"/>
  <text x="594" y="249" text-anchor="middle" dominant-baseline="middle" class="process">
    <tspan x="594" dy="0">3</tspan>
  </text>
  <text x="594" y="272" text-anchor="middle" dominant-baseline="middle" class="process">
    <tspan x="594" dy="0">MANAGE</tspan>
    <tspan x="594" dy="12">PROFILE</tspan>
  </text>
  <rect x="980" y="240" width="214" height="58" fill="#ffffff" stroke="#2d2d2d" stroke-width="1.5"/>
  <line x1="1025" y1="240" x2="1025" y2="298" stroke="#2d2d2d" stroke-width="1.5"/>
  <text x="1002.5" y="269" text-anchor="middle" dominant-baseline="middle" class="store">
    <tspan x="1002.5" dy="0">D3</tspan>
  </text>
  <text x="1110" y="269" text-anchor="middle" dominant-baseline="middle" class="store">
    <tspan x="1110" dy="0">CUSTOMERS</tspan>
  </text>
  <rect x="500" y="326" width="188" height="58" fill="#fafafa" stroke="#2d2d2d" stroke-width="1.5"/>
  <line x1="500" y1="344" x2="688" y2="344" stroke="#2d2d2d" stroke-width="1.5"/>
  <text x="594" y="335" text-anchor="middle" dominant-baseline="middle" class="process">
    <tspan x="594" dy="0">4</tspan>
  </text>
  <text x="594" y="358" text-anchor="middle" dominant-baseline="middle" class="process">
    <tspan x="594" dy="0">MAKE</tspan>
    <tspan x="594" dy="12">RESERVATION</tspan>
  </text>
  <rect x="980" y="326" width="214" height="58" fill="#ffffff" stroke="#2d2d2d" stroke-width="1.5"/>
  <line x1="1025" y1="326" x2="1025" y2="384" stroke="#2d2d2d" stroke-width="1.5"/>
  <text x="1002.5" y="355" text-anchor="middle" dominant-baseline="middle" class="store">
    <tspan x="1002.5" dy="0">D4</tspan>
  </text>
  <text x="1110" y="355" text-anchor="middle" dominant-baseline="middle" class="store">
    <tspan x="1110" dy="0">RESERVATIONS</tspan>
  </text>
  <rect x="500" y="412" width="188" height="58" fill="#fafafa" stroke="#2d2d2d" stroke-width="1.5"/>
  <line x1="500" y1="430" x2="688" y2="430" stroke="#2d2d2d" stroke-width="1.5"/>
  <text x="594" y="421" text-anchor="middle" dominant-baseline="middle" class="process">
    <tspan x="594" dy="0">5</tspan>
  </text>
  <text x="594" y="444" text-anchor="middle" dominant-baseline="middle" class="process">
    <tspan x="594" dy="0">SUBMIT SERVICE</tspan>
    <tspan x="594" dy="12">REQUEST</tspan>
  </text>
  <rect x="980" y="412" width="214" height="58" fill="#ffffff" stroke="#2d2d2d" stroke-width="1.5"/>
  <line x1="1025" y1="412" x2="1025" y2="470" stroke="#2d2d2d" stroke-width="1.5"/>
  <text x="1002.5" y="441" text-anchor="middle" dominant-baseline="middle" class="store">
    <tspan x="1002.5" dy="0">D5</tspan>
  </text>
  <text x="1110" y="435" text-anchor="middle" dominant-baseline="middle" class="store">
    <tspan x="1110" dy="0">SERVICE</tspan>
    <tspan x="1110" dy="12">REQUESTS</tspan>
  </text>
  <rect x="500" y="498" width="188" height="58" fill="#fafafa" stroke="#2d2d2d" stroke-width="1.5"/>
  <line x1="500" y1="516" x2="688" y2="516" stroke="#2d2d2d" stroke-width="1.5"/>
  <text x="594" y="507" text-anchor="middle" dominant-baseline="middle" class="process">
    <tspan x="594" dy="0">6</tspan>
  </text>
  <text x="594" y="530" text-anchor="middle" dominant-baseline="middle" class="process">
    <tspan x="594" dy="0">UPLOAD</tspan>
    <tspan x="594" dy="12">DOCUMENTS</tspan>
  </text>
  <rect x="980" y="498" width="214" height="58" fill="#ffffff" stroke="#2d2d2d" stroke-width="1.5"/>
  <line x1="1025" y1="498" x2="1025" y2="556" stroke="#2d2d2d" stroke-width="1.5"/>
  <text x="1002.5" y="527" text-anchor="middle" dominant-baseline="middle" class="store">
    <tspan x="1002.5" dy="0">D6</tspan>
  </text>
  <text x="1110" y="527" text-anchor="middle" dominant-baseline="middle" class="store">
    <tspan x="1110" dy="0">DOCUMENTS</tspan>
  </text>
  <rect x="500" y="584" width="188" height="58" fill="#fafafa" stroke="#2d2d2d" stroke-width="1.5"/>
  <line x1="500" y1="602" x2="688" y2="602" stroke="#2d2d2d" stroke-width="1.5"/>
  <text x="594" y="593" text-anchor="middle" dominant-baseline="middle" class="process">
    <tspan x="594" dy="0">7</tspan>
  </text>
  <text x="594" y="616" text-anchor="middle" dominant-baseline="middle" class="process">
    <tspan x="594" dy="0">VIEW / UPLOAD</tspan>
    <tspan x="594" dy="12">PAYMENTS</tspan>
  </text>
  <rect x="980" y="584" width="214" height="58" fill="#ffffff" stroke="#2d2d2d" stroke-width="1.5"/>
  <line x1="1025" y1="584" x2="1025" y2="642" stroke="#2d2d2d" stroke-width="1.5"/>
  <text x="1002.5" y="613" text-anchor="middle" dominant-baseline="middle" class="store">
    <tspan x="1002.5" dy="0">D7</tspan>
  </text>
  <text x="1110" y="613" text-anchor="middle" dominant-baseline="middle" class="store">
    <tspan x="1110" dy="0">PAYMENTS</tspan>
  </text>
  <rect x="500" y="670" width="188" height="58" fill="#fafafa" stroke="#2d2d2d" stroke-width="1.5"/>
  <line x1="500" y1="688" x2="688" y2="688" stroke="#2d2d2d" stroke-width="1.5"/>
  <text x="594" y="679" text-anchor="middle" dominant-baseline="middle" class="process">
    <tspan x="594" dy="0">8</tspan>
  </text>
  <text x="594" y="702" text-anchor="middle" dominant-baseline="middle" class="process">
    <tspan x="594" dy="0">VIEW</tspan>
    <tspan x="594" dy="12">HISTORY</tspan>
  </text>
  <rect x="980" y="670" width="214" height="58" fill="#ffffff" stroke="#2d2d2d" stroke-width="1.5"/>
  <line x1="1025" y1="670" x2="1025" y2="728" stroke="#2d2d2d" stroke-width="1.5"/>
  <text x="1002.5" y="699" text-anchor="middle" dominant-baseline="middle" class="store">
    <tspan x="1002.5" dy="0">D8</tspan>
  </text>
  <text x="1110" y="699" text-anchor="middle" dominant-baseline="middle" class="store">
    <tspan x="1110" dy="0">HISTORY</tspan>
  </text>
  <path d="M 206 60 L 250 60 L 250 88 L 500 88" fill="none" stroke="#373737" stroke-width="1.3" marker-end="url(#arrow)"/>
  <text x="375" y="80" text-anchor="middle" dominant-baseline="middle" class="label">
    <tspan x="375" dy="0">LOGIN / REGISTRATION DETAILS</tspan>
  </text>
  <path d="M 500 108 L 266 108 L 266 68 L 206 68" fill="none" stroke="#373737" stroke-width="1.3" marker-end="url(#arrow)"/>
  <text x="383" y="116" text-anchor="middle" dominant-baseline="middle" class="label">
    <tspan x="383" dy="0">VERIFY USER DATA</tspan>
  </text>
  <path d="M 688 88 L 980 88" fill="none" stroke="#373737" stroke-width="1.3" marker-end="url(#arrow)"/>
  <text x="834" y="80" text-anchor="middle" dominant-baseline="middle" class="label">
    <tspan x="834" dy="0">VERIFY USER DATA</tspan>
  </text>
  <path d="M 980 108 L 688 108" fill="none" stroke="#373737" stroke-width="1.3" marker-end="url(#arrow)"/>
  <text x="834" y="116" text-anchor="middle" dominant-baseline="middle" class="label">
    <tspan x="834" dy="0">VERIFY USER DATA</tspan>
  </text>
  <path d="M 206 94.28571 L 243 94.28571 L 243 174 L 500 174" fill="none" stroke="#373737" stroke-width="1.3" marker-end="url(#arrow)"/>
  <text x="371.5" y="166" text-anchor="middle" dominant-baseline="middle" class="label">
    <tspan x="371.5" dy="0">VEHICLE VIEW DETAILS</tspan>
  </text>
  <path d="M 500 194 L 259 194 L 259 102.2857 L 206 102.2857" fill="none" stroke="#373737" stroke-width="1.3" marker-end="url(#arrow)"/>
  <text x="379.5" y="202" text-anchor="middle" dominant-baseline="middle" class="label">
    <tspan x="379.5" dy="0">VEHICLE INFO</tspan>
  </text>
  <path d="M 688 174 L 980 174" fill="none" stroke="#373737" stroke-width="1.3" marker-end="url(#arrow)"/>
  <text x="834" y="166" text-anchor="middle" dominant-baseline="middle" class="label">
    <tspan x="834" dy="0">VEHICLE INFO</tspan>
  </text>
  <path d="M 980 194 L 688 194" fill="none" stroke="#373737" stroke-width="1.3" marker-end="url(#arrow)"/>
  <text x="834" y="202" text-anchor="middle" dominant-baseline="middle" class="label">
    <tspan x="834" dy="0">VEHICLE INFO</tspan>
  </text>
  <path d="M 206 128.5714 L 236 128.5714 L 236 260 L 500 260" fill="none" stroke="#373737" stroke-width="1.3" marker-end="url(#arrow)"/>
  <text x="368" y="252" text-anchor="middle" dominant-baseline="middle" class="label">
    <tspan x="368" dy="0">CUSTOMER PROFILE DETAILS</tspan>
  </text>
  <path d="M 500 280 L 252 280 L 252 136.5714 L 206 136.5714" fill="none" stroke="#373737" stroke-width="1.3" marker-end="url(#arrow)"/>
  <text x="376" y="288" text-anchor="middle" dominant-baseline="middle" class="label">
    <tspan x="376" dy="0">CUSTOMER REPORTS</tspan>
  </text>
  <path d="M 688 260 L 980 260" fill="none" stroke="#373737" stroke-width="1.3" marker-end="url(#arrow)"/>
  <text x="834" y="252" text-anchor="middle" dominant-baseline="middle" class="label">
    <tspan x="834" dy="0">CUSTOMER RECORDS</tspan>
  </text>
  <path d="M 980 280 L 688 280" fill="none" stroke="#373737" stroke-width="1.3" marker-end="url(#arrow)"/>
  <text x="834" y="288" text-anchor="middle" dominant-baseline="middle" class="label">
    <tspan x="834" dy="0">CUSTOMER RECORDS</tspan>
  </text>
  <path d="M 206 162.8571 L 229 162.8571 L 229 346 L 500 346" fill="none" stroke="#373737" stroke-width="1.3" marker-end="url(#arrow)"/>
  <text x="364.5" y="338" text-anchor="middle" dominant-baseline="middle" class="label">
    <tspan x="364.5" dy="0">RESERVE VEHICLE DETAILS</tspan>
  </text>
  <path d="M 500 366 L 245 366 L 245 170.8571 L 206 170.8571" fill="none" stroke="#373737" stroke-width="1.3" marker-end="url(#arrow)"/>
  <text x="372.5" y="374" text-anchor="middle" dominant-baseline="middle" class="label">
    <tspan x="372.5" dy="0">RESERVATION REPORTS</tspan>
  </text>
  <path d="M 688 346 L 980 346" fill="none" stroke="#373737" stroke-width="1.3" marker-end="url(#arrow)"/>
  <text x="834" y="338" text-anchor="middle" dominant-baseline="middle" class="label">
    <tspan x="834" dy="0">RESERVATION RECORDS</tspan>
  </text>
  <path d="M 980 366 L 688 366" fill="none" stroke="#373737" stroke-width="1.3" marker-end="url(#arrow)"/>
  <text x="834" y="374" text-anchor="middle" dominant-baseline="middle" class="label">
    <tspan x="834" dy="0">RESERVATION RECORDS</tspan>
  </text>
  <path d="M 206 197.1429 L 222 197.1429 L 222 432 L 500 432" fill="none" stroke="#373737" stroke-width="1.3" marker-end="url(#arrow)"/>
  <text x="361" y="424" text-anchor="middle" dominant-baseline="middle" class="label">
    <tspan x="361" dy="0">SERVICE REQUEST DETAILS</tspan>
  </text>
  <path d="M 500 452 L 238 452 L 238 205.1429 L 206 205.1429" fill="none" stroke="#373737" stroke-width="1.3" marker-end="url(#arrow)"/>
  <text x="369" y="460" text-anchor="middle" dominant-baseline="middle" class="label">
    <tspan x="369" dy="0">SERVICE REQUEST REPORTS</tspan>
  </text>
  <path d="M 688 432 L 980 432" fill="none" stroke="#373737" stroke-width="1.3" marker-end="url(#arrow)"/>
  <text x="834" y="424" text-anchor="middle" dominant-baseline="middle" class="label">
    <tspan x="834" dy="0">SERVICE REQUEST RECORDS</tspan>
  </text>
  <path d="M 980 452 L 688 452" fill="none" stroke="#373737" stroke-width="1.3" marker-end="url(#arrow)"/>
  <text x="834" y="460" text-anchor="middle" dominant-baseline="middle" class="label">
    <tspan x="834" dy="0">SERVICE REQUEST RECORDS</tspan>
  </text>
  <path d="M 206 231.4286 L 220 231.4286 L 220 518 L 500 518" fill="none" stroke="#373737" stroke-width="1.3" marker-end="url(#arrow)"/>
  <text x="360" y="510" text-anchor="middle" dominant-baseline="middle" class="label">
    <tspan x="360" dy="0">DOCUMENT UPLOAD DETAILS</tspan>
  </text>
  <path d="M 500 538 L 236 538 L 236 239.4286 L 206 239.4286" fill="none" stroke="#373737" stroke-width="1.3" marker-end="url(#arrow)"/>
  <text x="368" y="546" text-anchor="middle" dominant-baseline="middle" class="label">
    <tspan x="368" dy="0">DOCUMENT REPORTS</tspan>
  </text>
  <path d="M 688 518 L 980 518" fill="none" stroke="#373737" stroke-width="1.3" marker-end="url(#arrow)"/>
  <text x="834" y="510" text-anchor="middle" dominant-baseline="middle" class="label">
    <tspan x="834" dy="0">DOCUMENT RECORDS</tspan>
  </text>
  <path d="M 980 538 L 688 538" fill="none" stroke="#373737" stroke-width="1.3" marker-end="url(#arrow)"/>
  <text x="834" y="546" text-anchor="middle" dominant-baseline="middle" class="label">
    <tspan x="834" dy="0">DOCUMENT RECORDS</tspan>
  </text>
  <path d="M 206 265.7143 L 220 265.7143 L 220 604 L 500 604" fill="none" stroke="#373737" stroke-width="1.3" marker-end="url(#arrow)"/>
  <text x="360" y="596" text-anchor="middle" dominant-baseline="middle" class="label">
    <tspan x="360" dy="0">PAYMENT PROOF DETAILS</tspan>
  </text>
  <path d="M 500 624 L 236 624 L 236 273.7143 L 206 273.7143" fill="none" stroke="#373737" stroke-width="1.3" marker-end="url(#arrow)"/>
  <text x="368" y="632" text-anchor="middle" dominant-baseline="middle" class="label">
    <tspan x="368" dy="0">PAYMENT REPORTS</tspan>
  </text>
  <path d="M 688 604 L 980 604" fill="none" stroke="#373737" stroke-width="1.3" marker-end="url(#arrow)"/>
  <text x="834" y="596" text-anchor="middle" dominant-baseline="middle" class="label">
    <tspan x="834" dy="0">PAYMENT RECORDS</tspan>
  </text>
  <path d="M 980 624 L 688 624" fill="none" stroke="#373737" stroke-width="1.3" marker-end="url(#arrow)"/>
  <text x="834" y="632" text-anchor="middle" dominant-baseline="middle" class="label">
    <tspan x="834" dy="0">PAYMENT RECORDS</tspan>
  </text>
  <path d="M 206 300 L 220 300 L 220 690 L 500 690" fill="none" stroke="#373737" stroke-width="1.3" marker-end="url(#arrow)"/>
  <text x="360" y="682" text-anchor="middle" dominant-baseline="middle" class="label">
    <tspan x="360" dy="0">TRANSACTION HISTORY REQUEST</tspan>
  </text>
  <path d="M 500 710 L 236 710 L 236 308 L 206 308" fill="none" stroke="#373737" stroke-width="1.3" marker-end="url(#arrow)"/>
  <text x="368" y="718" text-anchor="middle" dominant-baseline="middle" class="label">
    <tspan x="368" dy="0">TRANSACTION HISTORY INFO</tspan>
  </text>
  <path d="M 688 690 L 980 690" fill="none" stroke="#373737" stroke-width="1.3" marker-end="url(#arrow)"/>
  <text x="834" y="682" text-anchor="middle" dominant-baseline="middle" class="label">
    <tspan x="834" dy="0">TRANSACTION HISTORY INFO</tspan>
  </text>
  <path d="M 980 710 L 688 710" fill="none" stroke="#373737" stroke-width="1.3" marker-end="url(#arrow)"/>
  <text x="834" y="718" text-anchor="middle" dominant-baseline="middle" class="label">
    <tspan x="834" dy="0">TRANSACTION HISTORY INFO</tspan>
  </text>
  <text x="660" y="793" text-anchor="middle" dominant-baseline="middle" class="caption">
    <tspan x="660" dy="0">Figure 4.8 Data Flow Diagram for Customer</tspan>
  </text>
</svg>
