<svg xmlns="http://www.w3.org/2000/svg" width="900" height="1038" viewBox="0 0 900 1038">
  <rect width="900" height="1038" fill="#ffffff"/>
  <defs>
    <marker id="arrow" viewBox="0 0 10 10" refX="5" refY="5" markerWidth="7" markerHeight="7" orient="auto-start-reverse">
      <path d="M 0 0 L 10 5 L 0 10 z" fill="#7e848a"/>
    </marker>
  </defs>
  <style>
    .step { font: 700 15px Arial, Helvetica, sans-serif; fill: #14181f; }
    .terminal { font: 700 13px Arial, Helvetica, sans-serif; fill: #14181f; }
    .caption { font: 700 18px 'Times New Roman', serif; fill: #000000; }
  </style>
  <rect x="375" y="48" width="150" height="52" rx="24" fill="#f8f9fa" stroke="#b0b4b8" stroke-width="2"/>
  <text x="450" y="74" text-anchor="middle" dominant-baseline="middle" class="terminal">
    <tspan x="450" dy="0">S</tspan>
  </text>
  <rect x="190" y="142" width="520" height="78" rx="7" fill="#f8f9fa" stroke="#b0b4b8" stroke-width="2"/>
  <text x="450" y="181" text-anchor="middle" dominant-baseline="middle" class="step">
    <tspan x="450" dy="0">L</tspan>
  </text>
  <rect x="190" y="262" width="520" height="78" rx="7" fill="#f8f9fa" stroke="#b0b4b8" stroke-width="2"/>
  <text x="450" y="301" text-anchor="middle" dominant-baseline="middle" class="step">
    <tspan x="450" dy="0">M</tspan>
  </text>
  <rect x="190" y="382" width="520" height="78" rx="7" fill="#f8f9fa" stroke="#b0b4b8" stroke-width="2"/>
  <text x="450" y="421" text-anchor="middle" dominant-baseline="middle" class="step">
    <tspan x="450" dy="0">M</tspan>
  </text>
  <rect x="190" y="502" width="520" height="78" rx="7" fill="#f8f9fa" stroke="#b0b4b8" stroke-width="2"/>
  <text x="450" y="532" text-anchor="middle" dominant-baseline="middle" class="step">
    <tspan x="450" dy="0">Manage staff, vehicles, customers,</tspan>
    <tspan x="450" dy="18">reservations, job orders, sales and payments</tspan>
  </text>
  <rect x="190" y="622" width="520" height="78" rx="7" fill="#f8f9fa" stroke="#b0b4b8" stroke-width="2"/>
  <text x="450" y="661" text-anchor="middle" dominant-baseline="middle" class="step">
    <tspan x="450" dy="0">A</tspan>
  </text>
  <rect x="190" y="742" width="520" height="78" rx="7" fill="#f8f9fa" stroke="#b0b4b8" stroke-width="2"/>
  <text x="450" y="781" text-anchor="middle" dominant-baseline="middle" class="step">
    <tspan x="450" dy="0">G</tspan>
  </text>
  <rect x="375" y="862" width="150" height="52" rx="24" fill="#f8f9fa" stroke="#b0b4b8" stroke-width="2"/>
  <text x="450" y="888" text-anchor="middle" dominant-baseline="middle" class="terminal">
    <tspan x="450" dy="0">E</tspan>
  </text>
  <line x1="450" y1="104" x2="450" y2="132" stroke="#7e848a" stroke-width="2" marker-end="url(#arrow)"/>
  <line x1="450" y1="224" x2="450" y2="252" stroke="#7e848a" stroke-width="2" marker-end="url(#arrow)"/>
  <line x1="450" y1="344" x2="450" y2="372" stroke="#7e848a" stroke-width="2" marker-end="url(#arrow)"/>
  <line x1="450" y1="464" x2="450" y2="492" stroke="#7e848a" stroke-width="2" marker-end="url(#arrow)"/>
  <line x1="450" y1="584" x2="450" y2="612" stroke="#7e848a" stroke-width="2" marker-end="url(#arrow)"/>
  <line x1="450" y1="704" x2="450" y2="732" stroke="#7e848a" stroke-width="2" marker-end="url(#arrow)"/>
  <line x1="450" y1="824" x2="450" y2="852" stroke="#7e848a" stroke-width="2" marker-end="url(#arrow)"/>
  <text x="450" y="986" text-anchor="middle" dominant-baseline="middle" class="caption">
    <tspan x="450" dy="0">P</tspan>
  </text>
</svg>
