<svg xmlns="http://www.w3.org/2000/svg" width="1800" height="1180" viewBox="0 0 1800 1180">
  <rect width="1800" height="1180" fill="#ffffff"/>
  <defs><pattern id="grid" width="22" height="22" patternUnits="userSpaceOnUse"><path d="M 22 0 L 0 0 0 22" fill="none" stroke="#ebebeb" stroke-width="1"/></pattern><marker id="arrow" viewBox="0 0 10 10" refX="5" refY="5" markerWidth="7" markerHeight="7" orient="auto"><path d="M 0 0 L 10 5 L 0 10 z" fill="#5a5a5a"/></marker></defs>
  <rect width="1800" height="1180" fill="url(#grid)"/>
  <style>.actor{font:700 9.5px Arial,sans-serif;fill:#181818}.case{font:700 8.5px Arial,sans-serif;fill:#181818}.title{font:700 13px Arial,sans-serif;fill:#181818}.include{font:italic 8px Arial,sans-serif;fill:#181818}.caption{font:700 18px 'Times New Roman',serif;fill:#000}</style>
  <rect x="255" y="70" width="1290" height="990" fill="#fcfcfc" stroke="#282828" stroke-width="1.6"/>
  <text x="900" y="93" text-anchor="middle" dominant-baseline="middle" class="title">
    <tspan x="900" dy="0">CDO Car Trading Inventory and Sales Management System</tspan>
  </text>
  <line x1="129" y1="241" x2="822.5" y2="165" stroke="#373737" stroke-width="1.15"/>
  <line x1="129" y1="241" x2="352.5" y2="225" stroke="#373737" stroke-width="1.15"/>
  <line x1="129" y1="241" x2="352.5" y2="315" stroke="#373737" stroke-width="1.15"/>
  <line x1="129" y1="241" x2="357.5" y2="420" stroke="#373737" stroke-width="1.15"/>
  <line x1="129" y1="241" x2="395" y2="525" stroke="#373737" stroke-width="1.15"/>
  <line x1="129" y1="241" x2="772.5" y2="235" stroke="#373737" stroke-width="1.15"/>
  <line x1="129" y1="241" x2="772.5" y2="345" stroke="#373737" stroke-width="1.15"/>
  <line x1="129" y1="241" x2="777.5" y2="455" stroke="#373737" stroke-width="1.15"/>
  <line x1="129" y1="241" x2="782.5" y2="565" stroke="#373737" stroke-width="1.15"/>
  <line x1="129" y1="241" x2="772.5" y2="675" stroke="#373737" stroke-width="1.15"/>
  <line x1="129" y1="241" x2="762.5" y2="785" stroke="#373737" stroke-width="1.15"/>
  <line x1="129" y1="241" x2="412.5" y2="760" stroke="#373737" stroke-width="1.15"/>
  <line x1="129" y1="241" x2="410" y2="640" stroke="#373737" stroke-width="1.15"/>
  <line x1="129" y1="731" x2="822.5" y2="165" stroke="#373737" stroke-width="1.15"/>
  <line x1="129" y1="731" x2="772.5" y2="235" stroke="#373737" stroke-width="1.15"/>
  <line x1="129" y1="731" x2="772.5" y2="345" stroke="#373737" stroke-width="1.15"/>
  <line x1="129" y1="731" x2="777.5" y2="455" stroke="#373737" stroke-width="1.15"/>
  <line x1="129" y1="731" x2="782.5" y2="565" stroke="#373737" stroke-width="1.15"/>
  <line x1="129" y1="731" x2="772.5" y2="675" stroke="#373737" stroke-width="1.15"/>
  <line x1="129" y1="731" x2="762.5" y2="785" stroke="#373737" stroke-width="1.15"/>
  <line x1="129" y1="731" x2="787.5" y2="895" stroke="#373737" stroke-width="1.15"/>
  <line x1="129" y1="731" x2="1072.5" y2="815" stroke="#373737" stroke-width="1.15"/>
  <line x1="129" y1="731" x2="410" y2="640" stroke="#373737" stroke-width="1.15"/>
  <line x1="1661" y1="281" x2="977.5" y2="165" stroke="#373737" stroke-width="1.15"/>
  <line x1="1661" y1="281" x2="1312.5" y2="150" stroke="#373737" stroke-width="1.15"/>
  <line x1="1661" y1="281" x2="1497.5" y2="500" stroke="#373737" stroke-width="1.15"/>
  <line x1="1661" y1="281" x2="1507.5" y2="610" stroke="#373737" stroke-width="1.15"/>
  <line x1="1661" y1="281" x2="1497.5" y2="720" stroke="#373737" stroke-width="1.15"/>
  <line x1="1661" y1="281" x2="1237.5" y2="625" stroke="#373737" stroke-width="1.15"/>
  <line x1="1661" y1="281" x2="1217.5" y2="735" stroke="#373737" stroke-width="1.15"/>
  <line x1="1661" y1="756" x2="977.5" y2="165" stroke="#373737" stroke-width="1.15"/>
  <line x1="1661" y1="756" x2="1310" y2="465" stroke="#373737" stroke-width="1.15"/>
  <line x1="1661" y1="756" x2="1357.5" y2="250" stroke="#373737" stroke-width="1.15"/>
  <line x1="1661" y1="756" x2="1382.5" y2="360" stroke="#373737" stroke-width="1.15"/>
  <line x1="1661" y1="756" x2="1310" y2="565" stroke="#373737" stroke-width="1.15"/>
  <line x1="1661" y1="756" x2="1305" y2="665" stroke="#373737" stroke-width="1.15"/>
  <line x1="1661" y1="756" x2="1337.5" y2="775" stroke="#373737" stroke-width="1.15"/>
  <line x1="1661" y1="756" x2="1377.5" y2="940" stroke="#373737" stroke-width="1.15"/>
  <line x1="1661" y1="756" x2="1132.5" y2="1005" stroke="#373737" stroke-width="1.15"/>
  <line x1="1661" y1="756" x2="757.5" y2="1005" stroke="#373737" stroke-width="1.15"/>
  <line x1="1215" y1="665" x2="1225" y2="775" stroke="#5a5a5a" stroke-width="1.1" stroke-dasharray="6 5" marker-end="url(#arrow)"/>
  <rect x="1175" y="710" width="90" height="20" fill="#ffffff"/>
  <text x="1220" y="720" text-anchor="middle" dominant-baseline="middle" class="include">
    <tspan x="1220" dy="0">&lt;&lt;include&gt;&gt;</tspan>
  </text>
  <line x1="885" y1="675" x2="885" y2="785" stroke="#5a5a5a" stroke-width="1.1" stroke-dasharray="6 5" marker-end="url(#arrow)"/>
  <rect x="840" y="720" width="90" height="20" fill="#ffffff"/>
  <text x="885" y="730" text-anchor="middle" dominant-baseline="middle" class="include">
    <tspan x="885" dy="0">&lt;&lt;include&gt;&gt;</tspan>
  </text>
  <line x1="885" y1="565" x2="1200" y2="150" stroke="#5a5a5a" stroke-width="1.1" stroke-dasharray="6 5" marker-end="url(#arrow)"/>
  <rect x="997.5" y="347.5" width="90" height="20" fill="#ffffff"/>
  <text x="1042.5" y="357.5" text-anchor="middle" dominant-baseline="middle" class="include">
    <tspan x="1042.5" dy="0">&lt;&lt;include&gt;&gt;</tspan>
  </text>
  <line x1="650" y1="1005" x2="885" y2="565" stroke="#5a5a5a" stroke-width="1.1" stroke-dasharray="6 5" marker-end="url(#arrow)"/>
  <rect x="722.5" y="775" width="90" height="20" fill="#ffffff"/>
  <text x="767.5" y="785" text-anchor="middle" dominant-baseline="middle" class="include">
    <tspan x="767.5" dy="0">&lt;&lt;include&gt;&gt;</tspan>
  </text>
  <line x1="1185" y1="815" x2="885" y2="895" stroke="#5a5a5a" stroke-width="1.1" stroke-dasharray="6 5" marker-end="url(#arrow)"/>
  <rect x="990" y="845" width="90" height="20" fill="#ffffff"/>
  <text x="1035" y="855" text-anchor="middle" dominant-baseline="middle" class="include">
    <tspan x="1035" dy="0">&lt;&lt;include&gt;&gt;</tspan>
  </text>
  <line x1="500" y1="640" x2="470" y2="225" stroke="#5a5a5a" stroke-width="1.1" stroke-dasharray="6 5" marker-end="url(#arrow)"/>
  <rect x="440" y="422.5" width="90" height="20" fill="#ffffff"/>
  <text x="485" y="432.5" text-anchor="middle" dominant-baseline="middle" class="include">
    <tspan x="485" dy="0">&lt;&lt;include&gt;&gt;</tspan>
  </text>
  <ellipse cx="1210" cy="565" rx="100" ry="29" fill="#ffffff" stroke="#282828" stroke-width="1.6"/>
  <text x="1210" y="565" text-anchor="middle" dominant-baseline="middle" class="case">
    <tspan x="1210" dy="0">MANAGE PROFILE</tspan>
  </text>
  <ellipse cx="885" cy="565" rx="102.5" ry="31" fill="#ffffff" stroke="#282828" stroke-width="1.6"/>
  <text x="885" y="559" text-anchor="middle" dominant-baseline="middle" class="case">
    <tspan x="885" dy="0">MANAGE JOB</tspan>
    <tspan x="885" dy="12">ORDERS</tspan>
  </text>
  <ellipse cx="885" cy="895" rx="97.5" ry="31" fill="#ffffff" stroke="#282828" stroke-width="1.6"/>
  <text x="885" y="889" text-anchor="middle" dominant-baseline="middle" class="case">
    <tspan x="885" dy="0">MANAGE</tspan>
    <tspan x="885" dy="12">DOCUMENTS</tspan>
  </text>
  <ellipse cx="900" cy="165" rx="77.5" ry="27" fill="#ffffff" stroke="#282828" stroke-width="1.6"/>
  <text x="900" y="165" text-anchor="middle" dominant-baseline="middle" class="case">
    <tspan x="900" dy="0">LOGIN</tspan>
  </text>
  <ellipse cx="1265" cy="940" rx="112.5" ry="31" fill="#ffffff" stroke="#282828" stroke-width="1.6"/>
  <text x="1265" y="934" text-anchor="middle" dominant-baseline="middle" class="case">
    <tspan x="1265" dy="0">VIEW / UPLOAD</tspan>
    <tspan x="1265" dy="12">PAYMENTS</tspan>
  </text>
  <ellipse cx="650" cy="1005" rx="107.5" ry="31" fill="#ffffff" stroke="#282828" stroke-width="1.6"/>
  <text x="650" y="999" text-anchor="middle" dominant-baseline="middle" class="case">
    <tspan x="650" dy="0">SUBMIT SERVICE</tspan>
    <tspan x="650" dy="12">REQUEST</tspan>
  </text>
  <ellipse cx="885" cy="455" rx="107.5" ry="31" fill="#ffffff" stroke="#282828" stroke-width="1.6"/>
  <text x="885" y="449" text-anchor="middle" dominant-baseline="middle" class="case">
    <tspan x="885" dy="0">PROCESS</tspan>
    <tspan x="885" dy="12">RESERVATIONS</tspan>
  </text>
  <ellipse cx="1115" cy="735" rx="102.5" ry="31" fill="#ffffff" stroke="#282828" stroke-width="1.6"/>
  <text x="1115" y="729" text-anchor="middle" dominant-baseline="middle" class="case">
    <tspan x="1115" dy="0">MARK WORK</tspan>
    <tspan x="1115" dy="12">COMPLETED</tspan>
  </text>
  <ellipse cx="490" cy="525" rx="95" ry="29" fill="#ffffff" stroke="#282828" stroke-width="1.6"/>
  <text x="490" y="525" text-anchor="middle" dominant-baseline="middle" class="case">
    <tspan x="490" dy="0">MANAGE STAFF</tspan>
  </text>
  <ellipse cx="470" cy="225" rx="117.5" ry="31" fill="#ffffff" stroke="#282828" stroke-width="1.6"/>
  <text x="470" y="219" text-anchor="middle" dominant-baseline="middle" class="case">
    <tspan x="470" dy="0">VIEW DASHBOARD</tspan>
    <tspan x="470" dy="12">AND ANALYTICS</tspan>
  </text>
  <ellipse cx="885" cy="345" rx="112.5" ry="31" fill="#ffffff" stroke="#282828" stroke-width="1.6"/>
  <text x="885" y="339" text-anchor="middle" dominant-baseline="middle" class="case">
    <tspan x="885" dy="0">MANAGE CUSTOMER</tspan>
    <tspan x="885" dy="12">RECORDS</tspan>
  </text>
  <ellipse cx="1200" cy="150" rx="112.5" ry="31" fill="#ffffff" stroke="#282828" stroke-width="1.6"/>
  <text x="1200" y="144" text-anchor="middle" dominant-baseline="middle" class="case">
    <tspan x="1200" dy="0">VIEW ASSIGNED</tspan>
    <tspan x="1200" dy="12">JOB ORDERS</tspan>
  </text>
  <ellipse cx="515" cy="760" rx="102.5" ry="31" fill="#ffffff" stroke="#282828" stroke-width="1.6"/>
  <text x="515" y="754" text-anchor="middle" dominant-baseline="middle" class="case">
    <tspan x="515" dy="0">MANAGE</tspan>
    <tspan x="515" dy="12">REQUIREMENTS</tspan>
  </text>
  <ellipse cx="455" cy="315" rx="102.5" ry="31" fill="#ffffff" stroke="#282828" stroke-width="1.6"/>
  <text x="455" y="309" text-anchor="middle" dominant-baseline="middle" class="case">
    <tspan x="455" dy="0">MANAGE USER</tspan>
    <tspan x="455" dy="12">ACCOUNTS</tspan>
  </text>
  <ellipse cx="885" cy="785" rx="122.5" ry="31" fill="#ffffff" stroke="#282828" stroke-width="1.6"/>
  <text x="885" y="779" text-anchor="middle" dominant-baseline="middle" class="case">
    <tspan x="885" dy="0">HANDLE FINANCING</tspan>
    <tspan x="885" dy="12">DOCUMENTATION</tspan>
  </text>
  <ellipse cx="1020" cy="1005" rx="112.5" ry="31" fill="#ffffff" stroke="#282828" stroke-width="1.6"/>
  <text x="1020" y="999" text-anchor="middle" dominant-baseline="middle" class="case">
    <tspan x="1020" dy="0">VIEW TRANSACTION</tspan>
    <tspan x="1020" dy="12">HISTORY</tspan>
  </text>
  <ellipse cx="1125" cy="625" rx="112.5" ry="31" fill="#ffffff" stroke="#282828" stroke-width="1.6"/>
  <text x="1125" y="619" text-anchor="middle" dominant-baseline="middle" class="case">
    <tspan x="1125" dy="0">UPDATE VEHICLE</tspan>
    <tspan x="1125" dy="12">CONDITION</tspan>
  </text>
  <ellipse cx="1215" cy="665" rx="90" ry="29" fill="#ffffff" stroke="#282828" stroke-width="1.6"/>
  <text x="1215" y="659" text-anchor="middle" dominant-baseline="middle" class="case">
    <tspan x="1215" dy="0">RESERVE</tspan>
    <tspan x="1215" dy="12">VEHICLE</tspan>
  </text>
  <ellipse cx="1185" cy="815" rx="112.5" ry="31" fill="#ffffff" stroke="#282828" stroke-width="1.6"/>
  <text x="1185" y="809" text-anchor="middle" dominant-baseline="middle" class="case">
    <tspan x="1185" dy="0">PROCESS VEHICLE</tspan>
    <tspan x="1185" dy="12">RELEASE</tspan>
  </text>
  <ellipse cx="1385" cy="610" rx="122.5" ry="31" fill="#ffffff" stroke="#282828" stroke-width="1.6"/>
  <text x="1385" y="604" text-anchor="middle" dominant-baseline="middle" class="case">
    <tspan x="1385" dy="0">RECORD INSPECTION</tspan>
    <tspan x="1385" dy="12">FINDINGS</tspan>
  </text>
  <ellipse cx="1220" cy="465" rx="90" ry="29" fill="#ffffff" stroke="#282828" stroke-width="1.6"/>
  <text x="1220" y="459" text-anchor="middle" dominant-baseline="middle" class="case">
    <tspan x="1220" dy="0">REGISTER</tspan>
    <tspan x="1220" dy="12">ACCOUNT</tspan>
  </text>
  <ellipse cx="470" cy="420" rx="112.5" ry="31" fill="#ffffff" stroke="#282828" stroke-width="1.6"/>
  <text x="470" y="414" text-anchor="middle" dominant-baseline="middle" class="case">
    <tspan x="470" dy="0">MANAGE ROLES</tspan>
    <tspan x="470" dy="12">AND PERMISSIONS</tspan>
  </text>
  <ellipse cx="1375" cy="500" rx="122.5" ry="31" fill="#ffffff" stroke="#282828" stroke-width="1.6"/>
  <text x="1375" y="494" text-anchor="middle" dominant-baseline="middle" class="case">
    <tspan x="1375" dy="0">UPDATE JOB ORDER</tspan>
    <tspan x="1375" dy="12">PROGRESS</tspan>
  </text>
  <ellipse cx="500" cy="640" rx="90" ry="29" fill="#ffffff" stroke="#282828" stroke-width="1.6"/>
  <text x="500" y="634" text-anchor="middle" dominant-baseline="middle" class="case">
    <tspan x="500" dy="0">GENERATE</tspan>
    <tspan x="500" dy="12">REPORTS</tspan>
  </text>
  <ellipse cx="1375" cy="720" rx="122.5" ry="31" fill="#ffffff" stroke="#282828" stroke-width="1.6"/>
  <text x="1375" y="714" text-anchor="middle" dominant-baseline="middle" class="case">
    <tspan x="1375" dy="0">UPDATE REPAIR /</tspan>
    <tspan x="1375" dy="12">CLEANING STATUS</tspan>
  </text>
  <ellipse cx="1280" cy="360" rx="102.5" ry="29" fill="#ffffff" stroke="#282828" stroke-width="1.6"/>
  <text x="1280" y="354" text-anchor="middle" dominant-baseline="middle" class="case">
    <tspan x="1280" dy="0">VIEW VEHICLE</tspan>
    <tspan x="1280" dy="12">DETAILS</tspan>
  </text>
  <ellipse cx="1225" cy="775" rx="112.5" ry="31" fill="#ffffff" stroke="#282828" stroke-width="1.6"/>
  <text x="1225" y="769" text-anchor="middle" dominant-baseline="middle" class="case">
    <tspan x="1225" dy="0">UPLOAD REQUIRED</tspan>
    <tspan x="1225" dy="12">DOCUMENTS</tspan>
  </text>
  <ellipse cx="885" cy="675" rx="112.5" ry="31" fill="#ffffff" stroke="#282828" stroke-width="1.6"/>
  <text x="885" y="669" text-anchor="middle" dominant-baseline="middle" class="case">
    <tspan x="885" dy="0">PROCESS SALES</tspan>
    <tspan x="885" dy="12">AND PAYMENTS</tspan>
  </text>
  <ellipse cx="1240" cy="250" rx="117.5" ry="31" fill="#ffffff" stroke="#282828" stroke-width="1.6"/>
  <text x="1240" y="244" text-anchor="middle" dominant-baseline="middle" class="case">
    <tspan x="1240" dy="0">BROWSE AVAILABLE</tspan>
    <tspan x="1240" dy="12">VEHICLES</tspan>
  </text>
  <ellipse cx="885" cy="235" rx="112.5" ry="31" fill="#ffffff" stroke="#282828" stroke-width="1.6"/>
  <text x="885" y="229" text-anchor="middle" dominant-baseline="middle" class="case">
    <tspan x="885" dy="0">MANAGE VEHICLE</tspan>
    <tspan x="885" dy="12">INVENTORY</tspan>
  </text>
  <circle cx="95" cy="211" r="14" fill="#ffffff" stroke="#282828" stroke-width="1.6"/>
  <line x1="95" y1="225" x2="95" y2="279" stroke="#282828" stroke-width="1.6"/>
  <line x1="61" y1="241" x2="129" y2="241" stroke="#282828" stroke-width="1.6"/>
  <line x1="95" y1="279" x2="65" y2="321" stroke="#282828" stroke-width="1.6"/>
  <line x1="95" y1="279" x2="125" y2="321" stroke="#282828" stroke-width="1.6"/>
  <text x="95" y="341" text-anchor="middle" dominant-baseline="middle" class="actor">
    <tspan x="95" dy="0">ADMIN /</tspan>
    <tspan x="95" dy="12">OWNER</tspan>
  </text>
  <circle cx="95" cy="701" r="14" fill="#ffffff" stroke="#282828" stroke-width="1.6"/>
  <line x1="95" y1="715" x2="95" y2="769" stroke="#282828" stroke-width="1.6"/>
  <line x1="61" y1="731" x2="129" y2="731" stroke="#282828" stroke-width="1.6"/>
  <line x1="95" y1="769" x2="65" y2="811" stroke="#282828" stroke-width="1.6"/>
  <line x1="95" y1="769" x2="125" y2="811" stroke="#282828" stroke-width="1.6"/>
  <text x="95" y="837" text-anchor="middle" dominant-baseline="middle" class="actor">
    <tspan x="95" dy="0">SECRETARY</tspan>
  </text>
  <circle cx="1695" cy="726" r="14" fill="#ffffff" stroke="#282828" stroke-width="1.6"/>
  <line x1="1695" y1="740" x2="1695" y2="794" stroke="#282828" stroke-width="1.6"/>
  <line x1="1661" y1="756" x2="1729" y2="756" stroke="#282828" stroke-width="1.6"/>
  <line x1="1695" y1="794" x2="1665" y2="836" stroke="#282828" stroke-width="1.6"/>
  <line x1="1695" y1="794" x2="1725" y2="836" stroke="#282828" stroke-width="1.6"/>
  <text x="1695" y="862" text-anchor="middle" dominant-baseline="middle" class="actor">
    <tspan x="1695" dy="0">CUSTOMER</tspan>
  </text>
  <circle cx="1695" cy="251" r="14" fill="#ffffff" stroke="#282828" stroke-width="1.6"/>
  <line x1="1695" y1="265" x2="1695" y2="319" stroke="#282828" stroke-width="1.6"/>
  <line x1="1661" y1="281" x2="1729" y2="281" stroke="#282828" stroke-width="1.6"/>
  <line x1="1695" y1="319" x2="1665" y2="361" stroke="#282828" stroke-width="1.6"/>
  <line x1="1695" y1="319" x2="1725" y2="361" stroke="#282828" stroke-width="1.6"/>
  <text x="1695" y="381" text-anchor="middle" dominant-baseline="middle" class="actor">
    <tspan x="1695" dy="0">MECHANICS &amp;</tspan>
    <tspan x="1695" dy="12">CAR WASHERS</tspan>
  </text>
  <text x="900" y="1136" text-anchor="middle" dominant-baseline="middle" class="caption">
    <tspan x="900" dy="0">Figure 4.9 Use Case Diagram</tspan>
  </text>
</svg>
