<svg width="512" height="512" viewBox="0 0 512 512" fill="none" xmlns="http://www.w3.org/2000/svg">
  <circle cx="256" cy="256" r="256" fill="#17191f"/>
  <circle cx="256" cy="256" r="244" fill="#202228"/>
  <path d="M63 214c24-35 61-60 110-75 51-15 111-18 180-10 50 6 92 18 126 35 30 15 49 35 57 58 2 7-3 14-10 14H78c-15 0-22-11-15-22Z" fill="#fb1f2c"/>
  <path d="M91 215c23-24 59-41 109-51 59-12 114-11 166 2 31 8 59 22 84 42 4 4 2 11-4 11H94c-2 0-4-2-3-4Z" fill="#17191e"/>
  <path d="M56 248h407c11 0 18 11 13 21l-13 31c-5 11-15 18-27 18H84c-15 0-27-10-31-25l-8-28c-3-9 4-17 11-17Z" fill="#d90f1d"/>
  <path d="M106 318c0-32 26-58 58-58s58 26 58 58h-32c0-14-12-26-26-26s-26 12-26 26h-32Z" fill="#17191f"/>
  <path d="M340 318c0-32 26-58 58-58s58 26 58 58h-32c0-14-12-26-26-26s-26 12-26 26h-32Z" fill="#17191f"/>
  <path d="M105 238c87-18 173-15 257 9" stroke="#ff6168" stroke-width="8" stroke-linecap="round"/>
  <text x="256" y="392" text-anchor="middle" fill="#f4f4f4" font-family="Arial Black, Arial, Helvetica, sans-serif" font-size="62" font-weight="900" letter-spacing="2">AUTO CDO</text>
  <text x="256" y="445" text-anchor="middle" fill="#ff2d36" font-family="Arial Black, Arial, Helvetica, sans-serif" font-size="35" font-weight="900" letter-spacing="8">CAR TRADING</text>
</svg>
